<?xml version="1.0" encoding="UTF-8"?>
<svg version="1.1" xmlns="http://www.w3.org/2000/svg" width="512" height="512">
<path d="M0 0 C168.96 0 337.92 0 512 0 C512 168.96 512 337.92 512 512 C343.04 512 174.08 512 0 512 C0 343.04 0 174.08 0 0 Z " fill="#DD401A" transform="translate(0,0)"/>
<path d="M0 0 C84.48 0 168.96 0 256 0 C256 84.48 256 168.96 256 256 C218.71 256 181.42 256 143 256 C139.77393148 294.7128223 143.91919503 329.72033595 169.640625 360.42529297 C192.72826558 387.17013523 221.38930672 397.33763898 256 400 C256 417.16 256 434.32 256 452 C251.71 451.67 247.42 451.34 243 451 C242.34 452.98 241.68 454.96 241 457 C239.81878261 459.40414903 238.61297997 461.75970042 237.33984375 464.11328125 C236.9899086 464.76830124 236.63997345 465.42332123 236.2794342 466.09819031 C235.5445289 467.47166947 234.80738715 468.84395411 234.06811523 470.21508789 C232.93289616 472.32104062 231.80476843 474.43067312 230.67773438 476.54101562 C229.96134517 477.87782271 229.24456234 479.21441896 228.52734375 480.55078125 C228.18879868 481.18301102 227.8502536 481.81524078 227.50144958 482.46662903 C225.1167545 486.8832455 225.1167545 486.8832455 224 488 C213.3036716 486.93036716 202.65110427 485.45242331 192 484 C191.67 468.16 191.34 452.32 191 436 C186.38 433.69 181.76 431.38 177 429 C172.9003159 431.04984205 169.83955331 433.5681921 166.4375 436.5625 C165.18964353 437.64680246 163.94093509 438.73012517 162.69140625 439.8125 C161.76158936 440.61880859 161.76158936 440.61880859 160.81298828 441.44140625 C156.61594695 445.04952796 152.32532793 448.54706872 148 452 C147.32195312 452.59683594 146.64390625 453.19367188 145.9453125 453.80859375 C144 455 144 455 142.15161133 454.76098633 C139.60357858 453.85979285 137.80237801 452.62246266 135.62890625 451.015625 C134.80712891 450.40976562 133.98535156 449.80390625 133.13867188 449.1796875 C132.28853516 448.54289062 131.43839844 447.90609375 130.5625 447.25 C129.2930957 446.31800781 129.2930957 446.31800781 127.99804688 445.3671875 C123.66512188 442.15057599 119.77211352 438.8771366 116 435 C117.81240999 430.37260266 119.62725314 425.74616989 121.44433594 421.12060547 C122.06186449 419.54762481 122.67873291 417.97438481 123.29492188 416.40087891 C124.18184851 414.13635493 125.07116212 411.87278091 125.9609375 409.609375 C126.23497406 408.90818542 126.50901062 408.20699585 126.79135132 407.48455811 C127.84120145 404.81922564 128.89783681 402.20080638 130.19750977 399.64624023 C131.16155178 398.01206488 131.16155178 398.01206488 130.87890625 396.05078125 C129.677403 393.24727367 128.02667338 391.40567894 125.9375 389.1875 C125.20402344 388.37667969 124.47054687 387.56585938 123.71484375 386.73046875 C118.56998526 383.45108413 111.07741511 386.33913627 105.39453125 387.5859375 C103.98535604 387.88048944 102.57583939 388.17341182 101.16601562 388.46484375 C98.97681935 388.91822322 96.79118674 389.37977617 94.60961914 389.86865234 C92.48010329 390.34293522 90.34567651 390.77997568 88.20703125 391.2109375 C86.9435083 391.48212402 85.67998535 391.75331055 84.37817383 392.03271484 C81 392 81 392 78.24414062 389.8215332 C76.37027457 387.46554213 74.55516042 385.14846307 72.88671875 382.64453125 C72.0987793 381.46407227 72.0987793 381.46407227 71.29492188 380.25976562 C70.76447266 379.45216797 70.23402344 378.64457031 69.6875 377.8125 C68.86282227 376.58370117 68.86282227 376.58370117 68.02148438 375.33007812 C64 369.26038432 64 369.26038432 64 367 C65.53195272 365.62787699 67.12921081 364.3284554 68.75 363.0625 C73.06372416 359.61596781 77.20305614 356.06771434 81.25 352.3125 C93.48237457 341 93.48237457 341 96 341 C94.68 334.4 93.36 327.8 92 321 C88.02307018 319.67435673 84.14958768 318.45637391 80.11328125 317.37890625 C78.4571582 316.93514648 78.4571582 316.93514648 76.76757812 316.48242188 C75.05731445 316.02706055 75.05731445 316.02706055 73.3125 315.5625 C69.9563148 314.66507267 66.60026091 313.76716952 63.24462891 312.86767578 C61.08129903 312.28916003 58.91690348 311.71461473 56.75146484 311.14404297 C55.25607178 310.74596436 55.25607178 310.74596436 53.73046875 310.33984375 C52.84125732 310.10515381 51.9520459 309.87046387 51.03588867 309.62866211 C49 309 49 309 48 308 C47.91232888 305.92737924 47.89304127 303.85179706 47.90234375 301.77734375 C47.90556641 300.51728516 47.90878906 299.25722656 47.91210938 297.95898438 C47.92046597 296.61848891 47.92893093 295.27799412 47.9375 293.9375 C47.9425134 292.59310058 47.94707658 291.2486994 47.95117188 289.90429688 C47.96300512 286.60282059 47.97949029 283.30143197 48 280 C53.85162348 277.73485543 59.7356723 275.7848898 65.75 274 C67.05855957 273.60917236 67.05855957 273.60917236 68.39355469 273.21044922 C74.89232841 271.28680257 81.40383832 269.56224882 88 268 C88 264.04 88 260.08 88 256 C58.96 256 29.92 256 0 256 C0 171.52 0 87.04 0 0 Z " fill="#DD401A" transform="translate(0,0)"/>
<path d="M0 0 C84.48 0 168.96 0 256 0 C256 84.48 256 168.96 256 256 C171.52 256 87.04 256 0 256 C0 171.52 0 87.04 0 0 Z " fill="#FEFEFE" transform="translate(256,0)"/>
<path d="M0 0 C29.04 0 58.08 0 88 0 C88 3.96 88 7.92 88 12 C78.20735344 15.69979412 68.33775249 18.70267516 58.22485352 21.39331055 C55.14205754 22.23395007 52.07241219 23.12216794 49 24 C49 33.24 49 42.48 49 52 C51.660625 52.70125 54.32125 53.4025 57.0625 54.125 C57.96613281 54.36404053 58.86976562 54.60308105 59.80078125 54.84936523 C64.63165371 56.12498138 69.46784483 57.37536044 74.3125 58.59765625 C75.87278931 58.99476807 75.87278931 58.99476807 77.46459961 59.39990234 C79.51087573 59.9201393 81.55855377 60.43489634 83.60766602 60.94384766 C84.54280029 61.18280762 85.47793457 61.42176758 86.44140625 61.66796875 C87.68966187 61.98157349 87.68966187 61.98157349 88.96313477 62.30151367 C91 63 91 63 93 65 C93.63127233 67.44690422 94.16194758 69.83422455 94.625 72.3125 C94.7590625 72.97701172 94.893125 73.64152344 95.03125 74.32617188 C96.51109971 81.95947827 96.51109971 81.95947827 96 85 C94.015625 87.0703125 94.015625 87.0703125 91.25 89.125 C86.89654573 92.48546277 82.7724814 95.93774003 78.75 99.6875 C66.52397112 111 66.52397112 111 64 111 C71.92 122.88 71.92 122.88 80 135 C96.83567599 132.22662219 96.83567599 132.22662219 113.4765625 128.515625 C116.24554607 127.9498265 118.19293066 127.5538146 121 128 C123.20249015 129.67682917 124.97089488 131.22546576 126.875 133.1875 C127.38546875 133.67025391 127.8959375 134.15300781 128.421875 134.65039062 C129.8671875 136.10546875 129.8671875 136.10546875 132 139 C131.62649033 142.96433407 130.12375496 146.42463835 128.6015625 150.078125 C128.12203125 151.23957031 127.6425 152.40101563 127.1484375 153.59765625 C126.64570312 154.80292969 126.14296875 156.00820313 125.625 157.25 C122.49701965 164.76855695 119.45079901 172.2308004 117 180 C117.54938232 180.4031543 118.09876465 180.80630859 118.66479492 181.22167969 C121.17316938 183.0633581 123.6803435 184.90666393 126.1875 186.75 C127.48397461 187.70132813 127.48397461 187.70132813 128.80664062 188.671875 C129.64775391 189.290625 130.48886719 189.909375 131.35546875 190.546875 C132.17063965 191.14306641 132.98581055 191.73925781 133.82568359 192.35351562 C136 194 136 194 138.80078125 196.515625 C140.90212879 198.2268484 140.90212879 198.2268484 143.4921875 198.03125 C146.71052366 196.70782205 148.62408138 194.91879891 151.125 192.5 C155.75922713 188.12808761 160.51280171 184.03530333 165.49609375 180.05859375 C167.71783982 178.2319788 169.74946991 176.31205224 171.8125 174.3125 C175 172 175 172 177.75 172.25 C182.51074486 174.813478 187.25318112 177.41082607 192 180 C192 195.84 192 211.68 192 228 C196.62 228.33 201.24 228.66 206 229 C208.359994 229.31299049 210.71715844 229.65395663 213.0625 230.0625 C216.78484909 230.70557923 220.22679525 231.04085358 224 231 C224.32685791 230.37134033 224.65371582 229.74268066 224.99047852 229.0949707 C237.00190081 206.00355521 237.00190081 206.00355521 243 195 C244.60407328 194.97291433 246.2082785 194.95356517 247.8125 194.9375 C248.70582031 194.92589844 249.59914062 194.91429687 250.51953125 194.90234375 C253 195 253 195 256 196 C256 215.8 256 235.6 256 256 C171.52 256 87.04 256 0 256 C0 171.52 0 87.04 0 0 Z " fill="#FEFEFE" transform="translate(0,256)"/>
<path d="M0 0 C18.15 0 36.3 0 55 0 C54.67 3.96 54.34 7.92 54 12 C52.3302032 48.84178936 60.50839606 81.40040499 85.8125 109.12890625 C108.32929552 132.98490635 135.95032094 141.53464007 168 144 C168 161.16 168 178.32 168 196 C163.71 195.67 159.42 195.34 155 195 C154.01 197.97 154.01 197.97 153 201 C151.81878261 203.40414903 150.61297997 205.75970042 149.33984375 208.11328125 C148.9899086 208.76830124 148.63997345 209.42332123 148.2794342 210.09819031 C147.5445289 211.47166947 146.80738715 212.84395411 146.06811523 214.21508789 C144.93289616 216.32104062 143.80476843 218.43067312 142.67773438 220.54101562 C141.96134517 221.87782271 141.24456234 223.21441896 140.52734375 224.55078125 C140.18879868 225.18301102 139.8502536 225.81524078 139.50144958 226.46662903 C137.1167545 230.8832455 137.1167545 230.8832455 136 232 C125.3036716 230.93036716 114.65110427 229.45242331 104 228 C103.67 212.16 103.34 196.32 103 180 C98.38 177.69 93.76 175.38 89 173 C84.9003159 175.04984205 81.83955331 177.5681921 78.4375 180.5625 C77.18964353 181.64680246 75.94093509 182.73012517 74.69140625 183.8125 C74.07152832 184.35003906 73.45165039 184.88757813 72.81298828 185.44140625 C68.61594695 189.04952796 64.32532793 192.54706872 60 196 C59.32195312 196.59683594 58.64390625 197.19367188 57.9453125 197.80859375 C56 199 56 199 54.15161133 198.76098633 C51.60357858 197.85979285 49.80237801 196.62246266 47.62890625 195.015625 C46.80712891 194.40976562 45.98535156 193.80390625 45.13867188 193.1796875 C44.28853516 192.54289063 43.43839844 191.90609375 42.5625 191.25 C41.71623047 190.62867188 40.86996094 190.00734375 39.99804688 189.3671875 C35.66512188 186.15057599 31.77211352 182.8771366 28 179 C29.81240999 174.37260266 31.62725314 169.74616989 33.44433594 165.12060547 C34.06186449 163.54762481 34.67873291 161.97438481 35.29492188 160.40087891 C36.18184851 158.13635493 37.07116212 155.87278091 37.9609375 153.609375 C38.23497406 152.90818542 38.50901062 152.20699585 38.79135132 151.48455811 C39.84120145 148.81922564 40.89783681 146.20080638 42.19750977 143.64624023 C43.16155178 142.01206488 43.16155178 142.01206488 42.87890625 140.05078125 C41.677403 137.24727367 40.02667338 135.40567894 37.9375 133.1875 C37.20402344 132.37667969 36.47054687 131.56585938 35.71484375 130.73046875 C30.56998526 127.45108413 23.07741511 130.33913627 17.39453125 131.5859375 C15.98535604 131.88048944 14.57583939 132.17341182 13.16601562 132.46484375 C10.97681935 132.91822322 8.79118674 133.37977617 6.60961914 133.86865234 C4.48010329 134.34293522 2.34567651 134.77997568 0.20703125 135.2109375 C-1.68825317 135.61771729 -1.68825317 135.61771729 -3.62182617 136.03271484 C-7 136 -7 136 -9.75585938 133.8215332 C-11.62972543 131.46554213 -13.44483958 129.14846307 -15.11328125 126.64453125 C-15.63857422 125.85755859 -16.16386719 125.07058594 -16.70507812 124.25976562 C-17.23552734 123.45216797 -17.76597656 122.64457031 -18.3125 121.8125 C-19.13717773 120.58370117 -19.13717773 120.58370117 -19.97851562 119.33007812 C-24 113.26038432 -24 113.26038432 -24 111 C-22.46804728 109.62787699 -20.87078919 108.3284554 -19.25 107.0625 C-14.93627584 103.61596781 -10.79694386 100.06771434 -6.75 96.3125 C5.48237457 85 5.48237457 85 8 85 C6.68 78.4 5.36 71.8 4 65 C0.02307018 63.67435673 -3.85041232 62.45637391 -7.88671875 61.37890625 C-8.99080078 61.08306641 -10.09488281 60.78722656 -11.23242188 60.48242188 C-12.37259766 60.17884766 -13.51277344 59.87527344 -14.6875 59.5625 C-18.0436852 58.66507267 -21.39973909 57.76716952 -24.75537109 56.86767578 C-26.91870097 56.28916003 -29.08309652 55.71461473 -31.24853516 55.14404297 C-32.24546387 54.87865723 -33.24239258 54.61327148 -34.26953125 54.33984375 C-35.15874268 54.10515381 -36.0479541 53.87046387 -36.96411133 53.62866211 C-39 53 -39 53 -40 52 C-40.08767112 49.92737924 -40.10695873 47.85179706 -40.09765625 45.77734375 C-40.09443359 44.51728516 -40.09121094 43.25722656 -40.08789062 41.95898438 C-40.07953403 40.61848891 -40.07106907 39.27799412 -40.0625 37.9375 C-40.0574866 36.59310058 -40.05292342 35.2486994 -40.04882812 33.90429688 C-40.03699488 30.60282059 -40.02050971 27.30143197 -40 24 C-34.14837652 21.73485543 -28.2643277 19.7848898 -22.25 18 C-20.94144043 17.60917236 -20.94144043 17.60917236 -19.60644531 17.21044922 C-13.10767159 15.28680257 -6.59616168 13.56224882 0 12 C0 8.04 0 4.08 0 0 Z " fill="#010101" transform="translate(88,256)"/>
<path d="M0 0 C1.24749968 -0.00532368 2.49499935 -0.01064735 3.78030205 -0.01613235 C9.68879231 -0.03995888 15.59726741 -0.05923698 21.50579172 -0.0721544 C28.29197065 -0.08729629 35.07767591 -0.12260813 41.86367327 -0.17415559 C47.77700918 -0.21752852 53.69022991 -0.23349703 59.60372734 -0.23988724 C62.10799301 -0.24660249 64.61225103 -0.26183148 67.11641121 -0.28577805 C70.60804232 -0.31731147 74.09835246 -0.31748564 77.59008789 -0.31005859 C78.62028549 -0.32646393 79.65048309 -0.34286926 80.7118988 -0.35977173 C85.29183526 -0.3198449 88.56011386 -0.26123447 92.21482849 2.68490601 C95.14010157 5.87316405 95.71523424 7.20558087 95.71009827 11.38626099 C95.71216451 12.67506259 95.71216451 12.67506259 95.7142725 13.98990059 C95.71067439 14.93827734 95.70707628 15.88665409 95.70336914 16.86376953 C95.70348968 17.87505354 95.70361021 18.88633755 95.7037344 19.92826653 C95.70298603 23.21261647 95.69536119 26.49691017 95.6875 29.78125 C95.68603035 31.80460584 95.68500978 33.82796206 95.68444824 35.85131836 C95.67919806 43.36703052 95.66523694 50.88273456 95.65234375 58.3984375 C95.63171875 75.1871875 95.61109375 91.9759375 95.58984375 109.2734375 C47.73984375 109.2734375 -0.11015625 109.2734375 -49.41015625 109.2734375 C-49.45140625 93.5778125 -49.49265625 77.8821875 -49.53515625 61.7109375 C-49.55336426 56.76279053 -49.57157227 51.81464355 -49.59033203 46.71655273 C-49.59936523 40.65441895 -49.59936523 40.65441895 -49.6010437 37.81263733 C-49.60410628 35.83626911 -49.61112261 33.85990453 -49.62130737 31.88356018 C-49.63599398 28.88251291 -49.63796665 25.88169318 -49.63720703 22.88061523 C-49.64440325 22.0064392 -49.65159946 21.13226316 -49.65901375 20.23159695 C-49.63754374 13.87467195 -49.19118975 8.61422439 -45.22265625 3.3984375 C-35.20861242 -3.85210045 -11.69642503 0.04691455 0 0 Z " fill="#030303" transform="translate(367.41015625,55.7265625)"/>
<path d="M0 0 C37.29 0 74.58 0 113 0 C113 47.52 113 95.04 113 144 C97.64283322 144 97.64283322 144 91.25 142.875 C90.49686523 142.74375732 89.74373047 142.61251465 88.96777344 142.47729492 C60.39461235 137.08484028 35.0242427 119.16495734 18.46508789 95.43579102 C0.09624878 67.9146259 -6.21560857 34.65136539 -1 2 C-0.67 1.34 -0.34 0.68 0 0 Z " fill="#FEFEFE" transform="translate(143,256)"/>
<path d="M0 0 C1.87333191 -0.00105862 3.74666367 -0.00244424 5.61999512 -0.00413513 C10.5943307 -0.00691891 15.56863384 -0.00258859 20.54296494 0.00403976 C23.6152831 0.00781496 26.68759822 0.00987772 29.75991821 0.01150513 C53.2132952 0.0262051 76.66435676 0.07029423 100.11328125 0.5703125 C101.07293793 0.58987 102.0325946 0.60942749 103.02133179 0.62957764 C105.64983829 0.68556758 108.27801979 0.74877517 110.90625 0.81640625 C111.63428833 0.83312881 112.36232666 0.84985138 113.11242676 0.86708069 C117.50332341 0.99706484 121.52995349 1.50483711 125.92578125 2.1328125 C125.92578125 24.5728125 125.92578125 47.0128125 125.92578125 70.1328125 C79.39578125 70.1328125 32.86578125 70.1328125 -15.07421875 70.1328125 C-16.06421875 45.3828125 -16.06421875 45.3828125 -17.07421875 20.1328125 C-18.52710861 15.5486162 -18.52710861 15.5486162 -20.07421875 14.1328125 C-26.74111312 13.81845342 -32.62696941 14.63747438 -39.11328125 16.1015625 C-40.50092178 16.40120911 -40.50092178 16.40120911 -41.91659546 16.70690918 C-44.84612121 17.34014303 -47.77283163 17.9852407 -50.69921875 18.6328125 C-53.63288436 19.2796467 -56.56704108 19.9235917 -59.50326538 20.55871582 C-61.32236136 20.95234494 -63.14003561 21.35262344 -64.95596313 21.76062012 C-69.77986155 22.80619646 -74.1381802 23.34303419 -79.07421875 23.1328125 C-77.17728269 18.01101634 -73.26401859 16.88513576 -68.57275391 14.65820312 C-62.73376274 12.11235408 -56.77711272 9.97064072 -50.76171875 7.8828125 C-49.53904297 7.4496875 -48.31636719 7.0165625 -47.05664062 6.5703125 C-30.99324809 0.91627754 -16.85968411 -0.02074073 0 0 Z " fill="#FEFEFE" transform="translate(371.07421875,325.8671875)"/>
<path d="M0 0 C35.31 0 70.62 0 107 0 C107 23.76 107 47.52 107 72 C71.69 72 36.38 72 0 72 C0 48.24 0 24.48 0 0 Z " fill="#FCFCFC" transform="translate(337,74)"/>
<path d="M0 0 C1.51815699 0.00015911 3.0363194 0.00585313 4.55444336 0.01586914 C5.35208603 0.01728409 6.1497287 0.01869904 6.97154236 0.02015686 C9.52916146 0.02577223 12.08669429 0.03832727 14.64428711 0.05102539 C16.37410356 0.05603841 18.10392137 0.06060166 19.83374023 0.06469727 C24.08312264 0.07574664 28.33244023 0.09302153 32.58178711 0.11352539 C30.4341235 7.53086218 28.00633636 14.82559989 25.45678711 22.11352539 C24.65722301 24.41037082 23.85774644 26.70724673 23.05834961 29.00415039 C22.65003906 30.17526367 22.24172852 31.34637695 21.82104492 32.55297852 C20.5982465 36.06623543 19.38171242 39.58159014 18.16772461 43.09790039 C17.7785083 44.22518555 17.38929199 45.3524707 16.98828125 46.51391602 C16.60663818 47.61928711 16.22499512 48.7246582 15.83178711 49.86352539 C13.07188481 57.85649692 10.27653697 65.8328591 7.35913086 73.76977539 C6.47685255 76.0183615 6.47685255 76.0183615 6.58178711 78.11352539 C23.96813023 68.34927784 23.96813023 68.34927784 41.17529297 58.27416992 C44.90656281 56.05305108 48.66884383 54.00669055 52.58178711 52.11352539 C51.32638636 60.63153393 49.5023951 68.94558128 47.41229248 77.29171753 C44.40056659 89.33737907 41.57460298 101.41387906 38.95678711 113.55102539 C35.9605853 127.43630013 32.81481882 141.28136043 29.58178711 155.11352539 C34.53178711 155.44352539 39.48178711 155.77352539 44.58178711 156.11352539 C43.26887695 157.64299805 43.26887695 157.64299805 41.92944336 159.20336914 C39.88764016 161.58477533 37.85273932 163.97160674 35.82788086 166.36743164 C28.64560549 174.84150141 21.19916506 183.02927589 13.58178711 191.11352539 C10.2115081 188.43684004 9.41819562 185.25655813 8.14428711 181.23852539 C7.93328369 180.57812256 7.72228027 179.91771973 7.50488281 179.23730469 C7.07025867 177.87136642 6.63986403 176.50407546 6.21362305 175.13549805 C5.61234327 173.21130983 4.99209223 171.29308023 4.37084961 169.37524414 C1.58178711 160.64211582 1.58178711 160.64211582 1.58178711 156.11352539 C6.53178711 156.11352539 11.48178711 156.11352539 16.58178711 156.11352539 C16.55084961 154.32688477 16.51991211 152.54024414 16.48803711 150.69946289 C16.48803711 139.35722078 17.35201463 128.0524478 18.08178711 116.73852539 C18.2267182 114.44167559 18.37125265 112.14480072 18.51538086 109.84790039 C18.86627738 104.26947819 19.22206821 98.69138527 19.58178711 93.11352539 C18.63037842 93.56155518 17.67896973 94.00958496 16.69873047 94.47119141 C13.0924073 96.16936757 9.4859226 97.86720046 5.87939453 99.56494141 C4.33280251 100.29304116 2.78625153 101.02122807 1.23974609 101.74951172 C-2.50619679 103.51352577 -6.25277715 105.27615396 -10.00073242 107.03588867 C-12.94273614 108.41756073 -15.88072623 109.80731342 -18.81616211 111.20288086 C-20.18218853 111.84892295 -21.54823571 112.49492117 -22.91430664 113.14086914 C-23.54369644 113.44215225 -24.17308624 113.74343536 -24.82154846 114.05384827 C-29.19204383 116.11352539 -29.19204383 116.11352539 -31.41821289 116.11352539 C-30.167876 107.65307091 -28.3349347 99.4905041 -26.10571289 91.23852539 C-23.94458562 83.07790883 -21.85834949 74.92070122 -20.04321289 66.67602539 C-17.50676132 55.18341133 -14.61513882 43.78273268 -11.71557617 32.37744141 C-11.34379827 30.90939301 -10.9725378 29.44121347 -10.60180664 27.97290039 C-10.42075378 27.25593491 -10.23970093 26.53896942 -10.05316162 25.80027771 C-8.47032694 19.46190043 -7.0542638 13.08987215 -5.70249939 6.69842529 C-4.29215339 0.14255063 -4.29215339 0.14255063 0 0 Z " fill="#FEFBF9" transform="translate(109.418212890625,29.886474609375)"/>
<path d="M0 0 C2.60701517 -0.0318726 5.21388064 -0.07986064 7.8203125 -0.14355469 C11.60324827 -0.2344838 15.38361975 -0.27352789 19.16748047 -0.30151367 C20.33209808 -0.3396669 21.4967157 -0.37782013 22.69662476 -0.41712952 C30.60500874 -0.3980126 30.60500874 -0.3980126 33.3225708 2.31619263 C34.66601562 4.50341797 34.66601562 4.50341797 35.66421509 6.69593811 C36.37794904 8.70237856 36.37794904 8.70237856 38.51904297 9.51489258 C42.44973455 9.83738155 46.38925916 9.83932101 50.33154297 9.88989258 C51.4253125 9.92727539 52.51908203 9.9646582 53.64599609 10.00317383 C60.08486103 10.14465341 60.08486103 10.14465341 65.65576172 7.24145508 C67.17107949 5.02407185 68.3575106 2.92012152 69.51904297 0.51489258 C78.31601905 0.4453764 87.11290055 0.39207323 95.9100914 0.35945606 C99.9950099 0.34380129 104.07974045 0.32256667 108.16455078 0.28857422 C112.10677182 0.25597372 116.04881209 0.23803815 119.99115753 0.23026085 C121.4950673 0.22471855 122.99896719 0.21389573 124.50279999 0.19770241 C126.60966862 0.17591824 128.71579073 0.17292596 130.82275391 0.17431641 C132.02188416 0.16765457 133.2210144 0.16099274 134.45648193 0.15412903 C137.79344035 0.54721604 139.18215778 1.13629149 141.51904297 3.51489258 C142.79178704 9.83182089 142.09592021 16.41012807 138.76123047 21.96411133 C134.31225622 27.5183339 126.1171232 27.69172148 119.51904297 28.51489258 C114.96432034 28.77675601 110.42415792 28.78894695 105.86279297 28.77368164 C104.55383057 28.77718628 103.24486816 28.78069092 101.89624023 28.78430176 C98.34250085 28.79333103 94.78887908 28.78992109 91.23513794 28.78354359 C87.49318149 28.77843406 83.75123424 28.78318866 80.00927734 28.78631592 C73.72866024 28.78994126 67.44809038 28.78519424 61.16748047 28.77563477 C53.93518029 28.76475298 46.70299294 28.76827957 39.4706955 28.77928758 C33.2299682 28.78840145 26.9892746 28.78962579 20.74854279 28.78441024 C17.03489842 28.78131297 13.32130686 28.78081876 9.60766602 28.78748322 C5.46347514 28.79440259 1.31947479 28.78477735 -2.82470703 28.77368164 C-4.03441162 28.7777301 -5.24411621 28.78177856 -6.49047852 28.78594971 C-26.28053961 28.68834495 -26.28053961 28.68834495 -32.04345703 24.26489258 C-37.04572663 18.62130636 -37.81227348 14.3621559 -37.78173828 7.00317383 C-37.48095703 4.51489258 -37.48095703 4.51489258 -35.48095703 1.51489258 C-33.34164429 1.01649475 -33.34164429 1.01649475 -30.67773438 0.85107422 C-29.19064972 0.75477219 -29.19064972 0.75477219 -27.67352295 0.65652466 C-18.4502161 0.24735029 -9.23167111 0.08717955 0 0 Z " fill="#020202" transform="translate(338.48095703125,171.485107421875)"/>
<path d="M0 0 C0.97897247 -0.00143509 0.97897247 -0.00143509 1.97772217 -0.00289917 C3.34582619 -0.00357525 4.71393352 -0.00176116 6.08203125 0.00244141 C8.17975983 0.00783276 10.27727769 0.00245939 12.375 -0.00390625 C13.70833381 -0.00324605 15.04166748 -0.00196608 16.375 0 C17.58317383 0.00112793 18.79134766 0.00225586 20.03613281 0.00341797 C22.921875 0.1328125 22.921875 0.1328125 24.921875 1.1328125 C24.046875 8.0078125 24.046875 8.0078125 22.921875 9.1328125 C21.34768911 9.3826803 19.76454583 9.57662631 18.1796875 9.74609375 C-0.59506142 11.5984462 -0.59506142 11.5984462 -17.078125 20.1328125 C-18.43252168 22.84160585 -18.14313951 25.14214518 -18.078125 28.1328125 C-16.881875 27.6584375 -15.685625 27.1840625 -14.453125 26.6953125 C-8.94136785 24.5096157 -3.55473987 24.00612058 2.34375 24 C4.12845703 23.99806641 4.12845703 23.99806641 5.94921875 23.99609375 C7.79193359 24.00189453 7.79193359 24.00189453 9.671875 24.0078125 C10.91582031 24.00394531 12.15976562 24.00007813 13.44140625 23.99609375 C15.21837891 23.99802734 15.21837891 23.99802734 17.03125 24 C18.11374023 24.00112793 19.19623047 24.00225586 20.31152344 24.00341797 C22.921875 24.1328125 22.921875 24.1328125 24.921875 25.1328125 C24.921875 27.7728125 24.921875 30.4128125 24.921875 33.1328125 C24.2419751 33.18816162 23.5620752 33.24351074 22.86157227 33.30053711 C19.73572791 33.55577854 16.6100522 33.81303259 13.484375 34.0703125 C11.88045898 34.20083008 11.88045898 34.20083008 10.24414062 34.33398438 C7.13581237 34.59063533 4.02883736 34.86018212 0.921875 35.1328125 C0.087771 35.19863525 -0.74633301 35.26445801 -1.60571289 35.33227539 C-6.66393797 35.79005044 -10.88531252 36.89475729 -15.640625 38.6953125 C-16.85878906 39.15035156 -18.07695312 39.60539062 -19.33203125 40.07421875 C-20.23824219 40.42355469 -21.14445312 40.77289063 -22.078125 41.1328125 C-22.1325215 43.50812644 -22.17198364 45.88217133 -22.203125 48.2578125 C-22.21988281 48.92296875 -22.23664063 49.588125 -22.25390625 50.2734375 C-22.29659383 54.62757086 -21.78043514 58.12107461 -20.078125 62.1328125 C-17.31589222 64.89504528 -14.87105883 64.71137541 -11.078125 65.1328125 C-10.98046875 71.28515625 -10.98046875 71.28515625 -11.078125 73.1328125 C-14.13295412 76.18764162 -22.30771455 75.36351368 -26.265625 75.5078125 C-27.45542969 75.55679688 -28.64523437 75.60578125 -29.87109375 75.65625 C-33.078125 75.1328125 -33.078125 75.1328125 -35.24755859 73.03295898 C-37.4892004 69.48155021 -37.58060294 67.38478722 -37.57421875 63.20703125 C-37.57698822 62.54667374 -37.57975769 61.88631622 -37.58261108 61.20594788 C-37.58326718 59.0765663 -37.55191087 56.94936282 -37.515625 54.8203125 C-37.5053981 53.73526428 -37.5053981 53.73526428 -37.4949646 52.6282959 C-37.17746349 20.31773065 -37.17746349 20.31773065 -27.515625 8.16796875 C-20.15372961 1.19802612 -9.72381817 0.00904421 0 0 Z " fill="#FEF6F2" transform="translate(311.078125,350.8671875)"/>
<path d="M0 0 C5.20211949 3.16462269 9.32790074 7.12039222 11.40625 12.92578125 C12.41020789 19.06605943 11.93542707 24.69087098 8.8203125 30.13671875 C5.4812905 34.36122725 0.35300442 38.56260871 -5.09765625 39.234375 C-11.83186019 39.51819202 -16.29696329 38.95440541 -21.6796875 34.74609375 C-26.67811435 29.99248781 -28.87324692 25.96868179 -29.28125 18.98828125 C-28.93956407 11.67435542 -26.05566436 7.20306018 -20.8359375 2.26171875 C-14.7309881 -2.31060737 -7.01062222 -2.90349565 0 0 Z " fill="#FEFAF7" transform="translate(478.59375,401.07421875)"/>
<path d="M0 0 C5.76528704 3.21525623 10.11550315 6.40900946 12.25 12.8125 C13.01771077 18.99209777 12.80382891 24.54736254 9.66015625 30.0234375 C6.40573119 34.15232027 2.21754044 37.15665319 -2.75 38.8125 C-9.50490217 39.54438105 -15.25997547 39.05639476 -20.75 34.8125 C-26.25306109 28.8538478 -28.2489473 23.84907339 -28.15234375 15.734375 C-27.35279448 9.92793955 -24.16104972 6.01232528 -19.921875 2.14453125 C-13.60830434 -2.43665722 -7.24015365 -2.29271532 0 0 Z " fill="#FEFAF7" transform="translate(331.75,401.1875)"/>
<path d="M0 0 C5.65458747 3.1044794 10.01878875 6.46421659 12.1875 12.75 C13.09611004 18.89917904 12.71963791 24.50991359 9.6015625 29.9609375 C6.2625405 34.185446 1.13425442 38.38682746 -4.31640625 39.05859375 C-11.15418141 39.34677584 -15.48656794 38.67970144 -20.96875 34.46875 C-26.00023466 29.77838294 -27.8883574 24.86795613 -28.25 18.0625 C-28.16944531 11.99404651 -25.86549801 8.1494081 -21.8125 3.75 C-15.50339492 -2.01986533 -7.96991669 -3.11866305 0 0 Z " fill="#FEFAF8" transform="translate(433.8125,401.25)"/>
<path d="M0 0 C90.05957593 -0.19588597 90.05957593 -0.19588597 119.1875 0.4375 C120.6254895 0.4669722 120.6254895 0.4669722 122.0925293 0.49703979 C124.72203943 0.5530156 127.35123086 0.61612511 129.98046875 0.68359375 C130.70856247 0.70031128 131.43665619 0.71702881 132.18681335 0.73425293 C136.57764866 0.86427879 140.60423031 1.3720329 145 2 C145 24.44 145 46.88 145 70 C98.47 70 51.94 70 4 70 C3.37014761 58.03280453 2.86158819 46.26569023 2.9375 34.3125 C2.94254265 32.90560061 2.94710051 31.49869941 2.95117188 30.09179688 C2.96273195 26.72781504 2.97901778 23.3639339 3 20 C14.55902726 31.55902726 5 52.65306689 5 69 C50.54 69 96.08 69 143 69 C143 47.22 143 25.44 143 3 C135.67361328 3.01740234 135.67361328 3.01740234 128.19921875 3.03515625 C125.04101424 3.04028631 121.88281511 3.04510161 118.72460938 3.04882812 C113.74925627 3.05472735 108.77392212 3.06157849 103.79858398 3.07543945 C84.86466298 3.12675615 65.99543052 2.93984716 47.07528687 2.12185669 C38.15859669 1.76853734 29.2339199 1.62461993 20.3125 1.4375 C18.31575112 1.39406766 16.31900631 1.35044808 14.32226562 1.30664062 C9.54822065 1.20229144 4.77412967 1.10039586 0 1 C0 0.67 0 0.34 0 0 Z " fill="#FCDBC9" transform="translate(352,326)"/>
<path d="M0 0 C3.96 0 7.92 0 12 0 C12.23954899 8.02489124 11.60057038 15.81100852 10.78393555 23.78125 C10.08938804 30.6788252 9.62913416 37.56426458 9.34204102 44.49047852 C9.10128975 49.7974205 9.10128975 49.7974205 8 52 C5.36 52 2.72 52 0 52 C0 34.84 0 17.68 0 0 Z " fill="#FEF7F2" transform="translate(340,348)"/>
<path d="M0 0 C0.33 0 0.66 0 1 0 C1.19916674 18.01352533 0.58937918 35.9988549 0 54 C-0.66 54 -1.32 54 -2 54 C-2 56.31 -2 58.62 -2 61 C-6.62 61 -11.24 61 -16 61 C-16 62.98 -16 64.96 -16 67 C-18 64 -18 64 -18 60 C-13.05 60 -8.1 60 -3 60 C-3.0309375 58.18242187 -3.061875 56.36484375 -3.09375 54.4921875 C-3.09375 43.6769848 -2.24359373 32.90960437 -1.5 22.125 C-1.35504221 19.97268493 -1.21050771 17.82034132 -1.06640625 15.66796875 C-0.71581383 10.4449735 -0.36000934 5.22235418 0 0 Z " fill="#FBD7C4" transform="translate(129,126)"/>
<path d="M0 0 C0 0.66 0 1.32 0 2 C-2.64 2 -5.28 2 -8 2 C-8 2.66 -8 3.32 -8 4 C-7.16597656 3.98839844 -6.33195312 3.97679687 -5.47265625 3.96484375 C1.11745662 3.91200207 7.46906374 4.11444932 14 5 C14 5.33 14 5.66 14 6 C13.19369141 6.02505615 12.38738281 6.0501123 11.55664062 6.07592773 C7.87096125 6.1926268 4.18549148 6.31501591 0.5 6.4375 C-1.40265625 6.49647461 -1.40265625 6.49647461 -3.34375 6.55664062 C-9.62282914 6.76921362 -15.78483581 7.06615589 -22 8 C-22 7.34 -22 6.68 -22 6 C-23.32 6 -24.64 6 -26 6 C-26 5.34 -26 4.68 -26 4 C-22.41772843 3.32754163 -18.8340249 2.66304461 -15.25 2 C-14.23421875 1.80921875 -13.2184375 1.6184375 -12.171875 1.421875 C-11.1921875 1.24140625 -10.2125 1.0609375 -9.203125 0.875 C-8.30239258 0.70742188 -7.40166016 0.53984375 -6.47363281 0.3671875 C-4 0 -4 0 0 0 Z " fill="#CB4924" transform="translate(318,345)"/>
<path d="M0 0 C12.21 0 24.42 0 37 0 C37 5.10373756 36.86834414 6.74417113 34.85546875 11.015625 C33.86876173 13.30442485 33.18603303 15.60432911 32.5 18 C31.61772278 21.05546533 30.66095115 23.9660037 29.375 26.875 C28.308709 29.29838864 27.51564 31.4218 27 34 C26.34 34 25.68 34 25 34 C25.67813274 30.14911137 26.74695973 26.58573324 28.03125 22.89453125 C28.42957031 21.74662109 28.82789063 20.59871094 29.23828125 19.41601562 C29.65464844 18.22685547 30.07101563 17.03769531 30.5 15.8125 C31.12455078 14.01135742 31.12455078 14.01135742 31.76171875 12.17382812 C34.85431644 3.29136712 34.85431644 3.29136712 36 1 C24.12 1 12.24 1 0 1 C0 0.67 0 0.34 0 0 Z " fill="#C2492A" transform="translate(106,29)"/>
<path d="M0 0 C0.75539063 -0.02578125 1.51078125 -0.0515625 2.2890625 -0.078125 C4.96506229 0.34281879 5.77204564 1.09329777 7.375 3.25 C8.46567074 6.55770351 8.49033921 9.64351416 8.47265625 13.109375 C8.46943359 14.22441406 8.46621094 15.33945312 8.46289062 16.48828125 C8.45451172 17.64714844 8.44613281 18.80601562 8.4375 20 C8.43298828 21.17433594 8.42847656 22.34867187 8.42382812 23.55859375 C8.41205094 26.45578072 8.39560326 29.35286454 8.375 32.25 C8.045 32.25 7.715 32.25 7.375 32.25 C7.045 29.28 6.715 26.31 6.375 23.25 C6.045 24.9 5.715 26.55 5.375 28.25 C5.045 28.25 4.715 28.25 4.375 28.25 C4.41052979 27.52820557 4.44605957 26.80641113 4.48266602 26.06274414 C4.639642 22.81289576 4.78867651 19.56273147 4.9375 16.3125 C4.99357422 15.17619141 5.04964844 14.03988281 5.10742188 12.86914062 C5.15576172 11.78955078 5.20410156 10.70996094 5.25390625 9.59765625 C5.3010376 8.59742432 5.34816895 7.59719238 5.39672852 6.56665039 C5.64582125 4.28733998 5.64582125 4.28733998 4.375 3.25 C2.02512738 3.01472227 -0.33056039 2.83613583 -2.6875 2.6875 C-3.97785156 2.60371094 -5.26820313 2.51992188 -6.59765625 2.43359375 C-8.09619141 2.34271484 -8.09619141 2.34271484 -9.625 2.25 C-9.625 1.92 -9.625 1.59 -9.625 1.25 C-6.41683224 0.42208574 -3.29977612 0.10765991 0 0 Z " fill="#C64928" transform="translate(346.625,338.75)"/>
<path d="M0 0 C0.94028046 0.00424484 1.88056091 0.00848969 2.84933472 0.01286316 C5.81392671 0.02948003 8.77780556 0.06709878 11.7421875 0.10546875 C13.76821926 0.1205376 15.79426181 0.13422213 17.8203125 0.14648438 C22.75287344 0.17932759 27.68491013 0.23098949 32.6171875 0.29296875 C32.6171875 0.62296875 32.6171875 0.95296875 32.6171875 1.29296875 C32.06817276 1.31580429 31.51915802 1.33863983 30.95350647 1.36216736 C25.25984803 1.59991708 19.56650069 1.8442699 13.87329102 2.0925293 C11.74608553 2.18440844 9.61880564 2.27458077 7.49145508 2.36303711 C4.44070786 2.49018117 1.39027743 2.62338116 -1.66015625 2.7578125 C-2.61744125 2.79639877 -3.57472626 2.83498505 -4.5610199 2.8747406 C-5.88227623 2.93468956 -5.88227623 2.93468956 -7.23022461 2.99584961 C-8.3993766 3.04581337 -8.3993766 3.04581337 -9.59214783 3.0967865 C-11.40481821 3.10634371 -11.40481821 3.10634371 -12.3828125 4.29296875 C-14.23173196 4.52660756 -16.08769281 4.7060051 -17.9453125 4.85546875 C-19.46318359 4.98115234 -19.46318359 4.98115234 -21.01171875 5.109375 C-21.79417969 5.16996094 -22.57664062 5.23054688 -23.3828125 5.29296875 C-16.24734735 0.53599198 -8.37477803 -0.14587148 0 0 Z " fill="#FFF7EA" transform="translate(351.3828125,326.70703125)"/>
<path d="M0 0 C0.66 0.33 1.32 0.66 2 1 C0.35 2.65 -1.3 4.3 -3 6 C-2.28714844 5.855625 -1.57429688 5.71125 -0.83984375 5.5625 C4.53773843 4.5202768 9.52360792 3.7566048 15 4 C15 4.33 15 4.66 15 5 C11.8148163 5.67806317 8.62654387 6.34035151 5.4375 7 C4.54224609 7.19078125 3.64699219 7.3815625 2.72460938 7.578125 C-2.29261421 8.60729907 -6.87899545 9.22479032 -12 9 C-10.53751886 5.11943925 -8.68145519 3.95866522 -5 2.1875 C-4.113125 1.74792969 -3.22625 1.30835938 -2.3125 0.85546875 C-1.1678125 0.43201172 -1.1678125 0.43201172 0 0 Z " fill="#FCE1D0" transform="translate(304,340)"/>
<path d="M0 0 C0.33 0 0.66 0 1 0 C1.02688151 1.64574566 1.04634123 3.29161413 1.0625 4.9375 C1.07410156 5.85402344 1.08570312 6.77054687 1.09765625 7.71484375 C1 10 1 10 0 11 C-0.23075082 12.34747084 -0.41153063 13.70377565 -0.5625 15.0625 C-0.706875 16.361875 -0.85125 17.66125 -1 19 C-1.66 19 -2.32 19 -3 19 C-2.938125 20.7325 -2.938125 20.7325 -2.875 22.5 C-2.85912567 26.94481301 -3.78206895 30.73724131 -5 35 C-5.66 35 -6.32 35 -7 35 C-7.33 35.66 -7.66 36.32 -8 37 C-7.35451364 30.23853037 -5.78338356 23.91968117 -4 17.375 C-1.62542765 8.76949104 -1.62542765 8.76949104 0 0 Z " fill="#FCDCCB" transform="translate(88,101)"/>
<path d="M0 0 C0.66 0 1.32 0 2 0 C2 0.99 2 1.98 2 3 C2.66 3 3.32 3 4 3 C4.33 2.01 4.66 1.02 5 0 C6.50156874 3.00313748 6.09281204 5.79067522 6.0625 9.125 C6.05347656 10.40632813 6.04445313 11.68765625 6.03515625 13.0078125 C6.02355469 13.99523437 6.01195312 14.98265625 6 16 C5.01 15.34 4.02 14.68 3 14 C1.68 15.32 0.36 16.64 -1 18 C-0.83628906 17.31550781 -0.67257812 16.63101562 -0.50390625 15.92578125 C0.06447034 12.6256722 0.09630767 9.53445931 0.0625 6.1875 C0.05347656 5.02605469 0.04445313 3.86460937 0.03515625 2.66796875 C0.02355469 1.78753906 0.01195312 0.90710938 0 0 Z " fill="#CF4625" transform="translate(445,412)"/>
<path d="M0 0 C1.27243323 3.78809632 0.93548225 7.22013707 0.66015625 11.171875 C0.61434921 11.8542926 0.56854218 12.53671021 0.52134705 13.23980713 C0.37429533 15.4103234 0.21852231 17.58011195 0.0625 19.75 C-0.0389882 21.22522085 -0.13990611 22.70048106 -0.24023438 24.17578125 C-0.48688384 27.7843336 -0.74135636 31.39228523 -1 35 C-1.33 35 -1.66 35 -2 35 C-2 24.44 -2 13.88 -2 3 C-2.66 2.67 -3.32 2.34 -4 2 C-2.68 1.34 -1.36 0.68 0 0 Z " fill="#CB4D2A" transform="translate(129,122)"/>
<path d="M0 0 C0.66 0 1.32 0 2 0 C1.64731891 3.17412981 0.91379278 4.08399678 -1.4375 6.375 C-5.8356039 10.88037473 -6.26938716 15.91155964 -7 22 C-7.33 22 -7.66 22 -8 22 C-8.75933982 14.47691102 -8.0794334 9.88388084 -3.5078125 3.77734375 C-2 2 -2 2 0 0 Z " fill="#FDDFCE" transform="translate(312,403)"/>
<path d="M0 0 C0.33 0 0.66 0 1 0 C1 8.91 1 17.82 1 27 C0.01 27.33 -0.98 27.66 -2 28 C-1.85929844 24.83308393 -1.71148731 21.66653622 -1.5625 18.5 C-1.52318359 17.613125 -1.48386719 16.72625 -1.44335938 15.8125 C-1.18915913 10.49384873 -0.73323663 5.2743744 0 0 Z " fill="#CF502F" transform="translate(350,372)"/>
<path d="M0 0 C0.66 0 1.32 0 2 0 C0.54896435 7.69322675 -1.85412547 14.85028515 -5 22 C-5.37308631 23.32276056 -5.73046415 24.65232077 -6 26 C-6.66 26 -7.32 26 -8 26 C-7.3664299 22.52760078 -6.49921277 19.26130329 -5.37109375 15.91796875 C-5.05849609 14.98662109 -4.74589844 14.05527344 -4.42382812 13.09570312 C-4.09833984 12.13599609 -3.77285156 11.17628906 -3.4375 10.1875 C-3.10814453 9.20845703 -2.77878906 8.22941406 -2.43945312 7.22070312 C-1.62901285 4.81287331 -0.81577946 2.40602504 0 0 Z " fill="#CB4B28" transform="translate(139,37)"/>
<path d="M0 0 C0.75539063 -0.02578125 1.51078125 -0.0515625 2.2890625 -0.078125 C4.375 0.25 4.375 0.25 6.10546875 1.50390625 C8.29696342 4.5180543 8.07534032 7.59415191 8.375 11.25 C7.385 11.25 6.395 11.25 5.375 11.25 C5.395625 10.115625 5.41625 8.98125 5.4375 7.8125 C5.79077477 4.43424326 5.79077477 4.43424326 4.375 3.25 C2.02512738 3.01472227 -0.33056039 2.83613583 -2.6875 2.6875 C-3.97785156 2.60371094 -5.26820313 2.51992188 -6.59765625 2.43359375 C-8.09619141 2.34271484 -8.09619141 2.34271484 -9.625 2.25 C-9.625 1.92 -9.625 1.59 -9.625 1.25 C-6.41683224 0.42208574 -3.29977612 0.10765991 0 0 Z " fill="#CE5E3E" transform="translate(346.625,338.75)"/>
<path d="M0 0 C0.33 0.66 0.66 1.32 1 2 C0.0919838 3.13199353 -0.82683826 4.25532363 -1.75 5.375 C-2.26046875 6.00148438 -2.7709375 6.62796875 -3.296875 7.2734375 C-6.25969446 10.27702971 -8.20088874 10.9548014 -12.453125 11.1953125 C-14.33257812 11.16050781 -14.33257812 11.16050781 -16.25 11.125 C-17.51328125 11.10695313 -18.7765625 11.08890625 -20.078125 11.0703125 C-21.04234375 11.04710937 -22.0065625 11.02390625 -23 11 C-22.67 10.34 -22.34 9.68 -22 9 C-21.3709375 9.04640625 -20.741875 9.0928125 -20.09375 9.140625 C-13.79898629 9.40606684 -9.18014918 8.73591404 -4 5 C-1.5404226 2.43190172 -1.5404226 2.43190172 0 0 Z " fill="#CB4F2E" transform="translate(341,430)"/>
<path d="M0 0 C5.0302076 0.52537724 10.01885239 1.10594786 15 2 C15 1.34 15 0.68 15 0 C16.65 0 18.3 0 20 0 C16.69331319 3.00463369 14.42190426 3.40816428 10 3.375 C8.96875 3.38273437 7.9375 3.39046875 6.875 3.3984375 C3.70888632 2.95965544 2.33622903 2.12282349 0 0 Z " fill="#FCD9C6" transform="translate(460,437)"/>
<path d="M0 0 C4.95 0 9.9 0 15 0 C13.02 2.31 11.04 4.62 9 7 C8.67 6.01 8.34 5.02 8 4 C8.33 3.34 8.66 2.68 9 2 C6.03 1.67 3.06 1.34 0 1 C0 0.67 0 0.34 0 0 Z " fill="#FEEFE0" transform="translate(139,186)"/>
<path d="M0 0 C0.66 0.33 1.32 0.66 2 1 C0.71520959 2.50589388 -0.57804082 4.00457375 -1.875 5.5 C-2.95394531 6.75296875 -2.95394531 6.75296875 -4.0546875 8.03125 C-4.69664062 8.6809375 -5.33859375 9.330625 -6 10 C-6.66 10 -7.32 10 -8 10 C-6.5682479 4.98886765 -4.01554307 3.05530451 0 0 Z " fill="#FEE9DC" transform="translate(416,402)"/>
<path d="M0 0 C0 0.33 0 0.66 0 1 C-0.95712891 1.19916016 -0.95712891 1.19916016 -1.93359375 1.40234375 C-3.17302734 1.66724609 -3.17302734 1.66724609 -4.4375 1.9375 C-5.26121094 2.11152344 -6.08492188 2.28554688 -6.93359375 2.46484375 C-8.97661204 2.80752994 -8.97661204 2.80752994 -10 4 C-11.84891946 4.23363881 -13.70488031 4.41303635 -15.5625 4.5625 C-17.08037109 4.68818359 -17.08037109 4.68818359 -18.62890625 4.81640625 C-19.41136719 4.87699219 -20.19382812 4.93757813 -21 5 C-14.59302052 0.72868035 -7.57874721 -0.42104151 0 0 Z " fill="#FBCFBA" transform="translate(349,327)"/>
<path d="M0 0 C0.66 0.66 1.32 1.32 2 2 C0.73861805 3.34227818 -0.53444559 4.67358677 -1.8125 6 C-2.52019531 6.7425 -3.22789063 7.485 -3.95703125 8.25 C-6 10 -6 10 -9 10 C-7.90609426 6.71828278 -7.10279743 5.99777331 -4.5 3.875 C-3.8709375 3.35679687 -3.241875 2.83859375 -2.59375 2.3046875 C-1.80484375 1.65886719 -1.80484375 1.65886719 -1 1 C-0.67 0.67 -0.34 0.34 0 0 Z " fill="#D55330" transform="translate(130,213)"/>
<path d="M0 0 C-1.31177858 2.9262753 -2.75289234 4.75289234 -5 7 C-6.17574711 9.09989652 -6.17574711 9.09989652 -7 11 C-7.66 11 -8.32 11 -9 11 C-7.84101462 6.46942077 -5.51745129 0 0 0 Z " fill="#FEEDDE" transform="translate(289,356)"/>
<path d="M0 0 C1.30211046 3.90633137 0.47812346 6.19538173 -0.4375 10.1875 C-0.72496094 11.45980469 -1.01242188 12.73210937 -1.30859375 14.04296875 C-1.53675781 15.01878906 -1.76492187 15.99460938 -2 17 C-2.33 17 -2.66 17 -3 17 C-3 12.38 -3 7.76 -3 3 C-2.01 2.67 -1.02 2.34 0 2 C0 1.34 0 0.68 0 0 Z " fill="#FDE1CF" transform="translate(151,124)"/>
<path d="M0 0 C0.91330404 3.03050885 1.06558338 5.47968569 0.75 8.625 C0.68296875 9.40101562 0.6159375 10.17703125 0.546875 10.9765625 C0 13 0 13 -3 15 C-2.44854729 9.76119922 -1.57077907 5.02649303 0 0 Z " fill="#FCDCC9" transform="translate(93,82)"/>
<path d="M0 0 C0.33 0 0.66 0 1 0 C0.91276622 1.77174819 0.80458345 3.54247377 0.6875 5.3125 C0.62949219 6.29863281 0.57148438 7.28476562 0.51171875 8.30078125 C-0.04622813 11.24384457 -0.68540132 12.18182999 -3 14 C-2.48594831 9.03083364 -1.76615118 4.70973649 0 0 Z " fill="#FCD9C9" transform="translate(279,367)"/>
<path d="M0 0 C0.33 0 0.66 0 1 0 C1.55353075 10.55808656 1.55353075 10.55808656 -2 15 C-3.53760842 11.92478317 -2.36599236 9.65324882 -1.5625 6.375 C-1.27503906 5.18648437 -0.98757812 3.99796875 -0.69140625 2.7734375 C-0.46324219 1.85820312 -0.23507813 0.94296875 0 0 Z " fill="#CD4F2D" transform="translate(148,141)"/>
<path d="M0 0 C0.33 0 0.66 0 1 0 C1.08090971 1.62418745 1.13914995 3.24951745 1.1875 4.875 C1.22230469 5.77992187 1.25710937 6.68484375 1.29296875 7.6171875 C1.19628906 8.40351562 1.09960938 9.18984375 1 10 C0.01 10.66 -0.98 11.32 -2 12 C-1 3.42857143 -1 3.42857143 0 0 Z " fill="#F9D4C0" transform="translate(96,68)"/>
<path d="M0 0 C0.66 0 1.32 0 2 0 C1.39102647 3.55234558 0.54266151 6.7331874 -1 10 C-1.99 10.495 -1.99 10.495 -3 11 C-2.01 7.37 -1.02 3.74 0 0 Z " fill="#D05333" transform="translate(139,37)"/>
<path d="M0 0 C1 3 1 3 0.22265625 5.04296875 C-0.16019531 5.75066406 -0.54304688 6.45835937 -0.9375 7.1875 C-1.31777344 7.90292969 -1.69804687 8.61835938 -2.08984375 9.35546875 C-2.54037109 10.16951172 -2.54037109 10.16951172 -3 11 C-3.33 9.68 -3.66 8.36 -4 7 C-3.34 7 -2.68 7 -2 7 C-2.04125 6.21625 -2.0825 5.4325 -2.125 4.625 C-2 2 -2 2 0 0 Z " fill="#FEE2D2" transform="translate(445,422)"/>
<path d="M0 0 C0.66 0 1.32 0 2 0 C1.60196439 2.88575819 1.20990931 3.82189513 -1.0625 5.75 C-1.701875 6.1625 -2.34125 6.575 -3 7 C-1.125 1.125 -1.125 1.125 0 0 Z " fill="#FDECDE" transform="translate(312,403)"/>
</svg>
